<?xml version="1.0" encoding="UTF-8"?>
<svg version="1.1" viewBox="0 0 1600 1600" width="1280" height="1280" xmlns="http://www.w3.org/2000/svg">
<path transform="translate(1365 90.8)" d="m0 0c1.9-0.02 1.9-0.02 3.83-0.04 6.61-0.01 12.3 0.34 18.6 2.23 1.8 0.23 3.62 0.43 5.44 0.56 4.45 0.33 4.45 0.33 5.56 1.44 1.41 0.27 2.83 0.52 4.25 0.75 15.1 2.94 26.6 9.86 35.8 22.2 4.67 7.51 7.02 14.2 8 23 0.33 1.06 0.67 2.11 1.01 3.21 1.11 4.27 1.26 8.01 1.22 12.4v2.44c-0.01 1.7-0.01 3.41-0.03 5.11-0.01 2.57-0.02 5.14-0.02 7.7-0.05 24-0.05 24-2.18 26.1-0.24 3.76-0.4 7.52-0.52 11.3-0.03 0.79-0.07 1.59-0.1 2.4-0.03 0.73-0.05 1.46-0.08 2.21-0.34 2.36-1.2 3.98-2.3 6.09-0.42 2.78-0.42 2.78-0.56 5.69-0.34 5.21-0.34 5.21-1.44 6.31-0.28 1.35-0.53 2.7-0.75 4.06-3.76 19-11.6 36.1-24.2 50.9-0.43 0.51-0.86 1.02-1.31 1.54-7.68 8.88-16 13.9-26.7 18.5-1.4 0.64-1.4 0.64-2.82 1.3-5.46 2.41-10.8 3.49-16.7 4.3-2.47 0.27-2.47 0.27-4.47 1.4-3.6 0.32-7.21 0.51-10.8 0.72-3.08 0.07-3.08 0.07-5.18 1.28-7.31 1.16-14.7 1.16-22.1 1.17-1.13 0-2.26 0-3.42 0.01h-7.13c-3.6 0-7.19 0.02-10.8 0.04-10 0.03-19.7-0.02-29.6-1.75-10.6-1.27-21.4-0.92-32.1-1.04-3.8-0.04-7.6-0.09-11.4-0.14-2.36-0.03-4.71-0.06-7.06-0.08-1.58-0.02-1.58-0.02-3.2-0.04-0.92-0.01-1.85-0.02-2.81-0.03-2.35-0.14-2.35-0.14-5.35-1.14-4.55-0.36-9.12-0.43-13.7-0.56-0.71-0.02-1.42-0.04-2.15-0.06-20.7-0.6-41.4-0.5-62.1-0.45-5.33 0.01-10.7 0.01-16 0.02-10.4 0.01-20.7 0.03-31.1 0.05v2c-1.04 0.02-2.08 0.04-3.15 0.06-3.89 0.07-7.79 0.16-11.7 0.25-1.68 0.04-3.36 0.08-5.04 0.11-12 0.2-12 0.2-23.8 2.13-5.5 1.08-11.2 0.85-16.8 0.93-10.5 0.28-19.1 2.75-26.5 10.5-5.42 6.64-8 14.9-9.42 23.3-0.63 3.32-1.51 6.54-2.4 9.8-1.68 6.16-3.18 12.4-4.62 18.6-1.11 4.82-2.37 9.59-3.69 14.4-1.47 5.37-2.33 10.5-2.81 16l-1 1c-0.33 1.57-0.62 3.16-0.88 4.75-3.2 18.3-3.2 18.3-5.12 20.2-0.21 1.83-0.37 3.66-0.5 5.5-0.39 5.39-0.39 5.39-1.5 6.5-0.37 2.16-0.7 4.33-1 6.5-0.89 6.39-0.89 6.39-2 7.5-0.37 2.16-0.7 4.33-1 6.5-0.89 6.39-0.89 6.39-2 7.5-0.21 1.83-0.37 3.66-0.5 5.5-0.39 5.39-0.39 5.39-1.5 6.5-0.37 2.32-0.7 4.66-1 7-0.89 6.89-0.89 6.89-2 8-0.29 3-0.45 6-0.62 9.02-0.37 2.89-1.09 4.43-2.38 6.98-0.42 2.78-0.42 2.78-0.56 5.69-0.34 5.21-0.34 5.21-1.44 6.31-0.38 2.5-0.71 4.99-1 7.5-0.87 7.36-0.87 7.36-2 8.5-0.29 2.74-0.45 5.48-0.62 8.24-0.38 2.76-0.38 2.76-1.38 4.69-1.41 2.9-1.4 5.56-1.56 8.76-0.34 6.21-0.34 6.21-1.44 7.31-0.38 2.5-0.71 4.99-1 7.5-0.87 7.36-0.87 7.36-2 8.5-0.29 2.71-0.45 5.42-0.62 8.14-0.38 2.86-0.38 2.86-1.38 5.29-1.23 3.16-1.39 5.94-1.56 9.32-0.34 6.15-0.34 6.15-1.44 7.25-0.38 2.64-0.71 5.28-1 7.93-0.87 7.8-0.87 7.8-2 10.1-0.28 3.57-0.45 7.14-0.62 10.7-0.38 3.29-0.38 3.29-2.38 6.29-0.27 2.36-0.45 4.74-0.56 7.12-0.34 6.78-0.34 6.78-1.44 7.88-0.38 2.64-0.71 5.28-1 7.93-0.87 7.8-0.87 7.8-2 10.1-0.23 3.17-0.4 6.33-0.52 9.5-0.19 3.65-0.41 5.38-2.48 8.5-0.28 2.73-0.47 5.39-0.56 8.12-0.32 7.76-0.32 7.76-1.44 8.88-0.38 2.81-0.71 5.61-1 8.43-0.87 8.3-0.87 8.3-2 10.6-0.28 3.5-0.45 7.01-0.62 10.5-0.38 3.48-0.38 3.48-1.38 5.84-1.49 3.92-1.47 7.79-1.63 12-0.04 0.84-0.07 1.67-0.11 2.53-0.1 2.05-0.18 4.11-0.26 6.16h-2c0.02 0.94 0.04 1.88 0.07 2.85 0.02 1.87 0.02 1.87 0.05 3.77 0.03 1.23 0.05 2.46 0.07 3.73-0.19 3.64-1.04 6.22-2.19 9.65-0.3 3.4-0.46 6.76-0.57 10.2-0.13 2.96-0.28 5.47-1.43 8.22-1.55 4.03-1.43 8.09-1.56 12.4-0.06 1.72-0.13 3.45-0.2 5.17-0.02 0.76-0.04 1.52-0.07 2.3-0.17 1.78-0.17 1.78-1.17 2.78-0.22 1.54-0.37 3.1-0.5 4.65-0.08 0.94-0.17 1.88-0.25 2.85-0.13 1.48-0.13 1.48-0.25 3-0.17 1.95-0.33 3.89-0.5 5.84-0.07 0.87-0.15 1.74-0.22 2.63-0.28 2.03-0.28 2.03-1.28 3.03-0.13 1.35-0.21 2.71-0.25 4.08-0.03 0.83-0.06 1.66-0.1 2.52-0.06 1.75-0.12 3.5-0.17 5.25-0.03 0.84-0.07 1.68-0.1 2.54-0.03 0.76-0.05 1.53-0.08 2.31-0.3 2.3-0.3 2.3-1.3 4.77-1.06 2.69-1.31 4.73-1.42 7.61-0.05 1.4-0.05 1.4-0.11 2.82-0.03 0.96-0.07 1.92-0.1 2.91-0.04 0.98-0.07 1.96-0.11 2.97-0.1 2.4-0.18 4.81-0.26 7.22h-2c0 0.57 0.01 1.14 0.01 1.72 0.02 2.61 0.04 5.23 0.05 7.84 0.01 0.9 0.02 1.79 0.03 2.71 0.01 5.03-0.23 9.78-1.09 14.7h-2c0.01 1.11 0.01 1.11 0.03 2.24 0.04 3.36 0.07 6.71 0.09 10.1 0.02 1.17 0.04 2.33 0.05 3.54 0.01 1.67 0.01 1.67 0.02 3.39 0.02 1.54 0.02 1.54 0.03 3.12-0.22 2.64-0.22 2.64-2.22 5.64-0.36 3.08-0.36 3.08-0.38 6.6-0.04 1.29-0.07 2.59-0.1 3.92-0.03 1.37-0.06 2.74-0.08 4.1-0.06 2.68-0.13 5.36-0.2 8.04-0.02 1.19-0.04 2.38-0.07 3.61-0.17 2.73-0.17 2.73-1.17 3.73-0.15 1.65-0.23 3.3-0.28 4.96-0.06 1.54-0.06 1.54-0.12 3.12-0.05 1.63-0.05 1.63-0.1 3.29-0.76 22.9-0.76 22.9-2.5 24.6-0.11 1.4-0.16 2.8-0.18 4.21-0.02 1.34-0.02 1.34-0.04 2.71-0.01 0.97-0.02 1.95-0.03 2.95-0.03 2.04-0.06 4.08-0.1 6.11-0.05 3.23-0.09 6.46-0.13 9.7-0.04 3.1-0.09 6.21-0.14 9.31-0.01 0.97-0.02 1.95-0.03 2.95-0.02 0.89-0.03 1.79-0.05 2.72-0.01 0.79-0.02 1.58-0.03 2.4-0.27 1.94-0.27 1.94-2.27 3.94-0.31 1.87-0.31 1.87-0.26 4.04 0 0.85-0.01 1.7-0.01 2.57 0 0.93 0 1.86 0.01 2.82 0 0.98-0.01 1.96-0.01 2.97-0.01 3.25 0 6.5 0 9.75v6.78c-0.01 4.75 0 9.5 0.01 14.2 0.01 6.07 0 12.1-0.01 18.2-0.01 4.68-0.01 9.35 0 14 0 2.24 0 4.48-0.01 6.71 0 3.14 0.01 6.28 0.02 9.42-0.01 1.37-0.01 1.37-0.01 2.77 0.03 5.35 0.62 10.3 1.79 15.5 0.69 3.18 1.01 6.39 1.35 9.62 1.92 15.7 5.81 30.3 10.9 45.3 0.24 0.73 0.49 1.47 0.74 2.23 3.23 9.61 7.04 18.7 11.7 27.7 1.51 2.91 2.94 5.83 4.34 8.79 4.61 9.16 11 16.7 18.2 23.9 0.73 0.77 1.47 1.54 2.22 2.34 5.43 5.47 10.8 8.62 18 11.4v2c1.58-0.06 1.58-0.06 3.18-0.13 3.74 0.12 5.45 0.72 8.82 2.13 7.21 1.82 14.6 2.64 22 3.53 3.03 0.47 3.03 0.47 4.03 1.47 1.34 0.1 2.69 0.13 4.04 0.13 0.86 0 1.72 0 2.6 0.01 1.4-0.01 1.4-0.01 2.83-0.01h2.88 6.04c3.09-0.01 6.19 0 9.28 0h5.86c1.4 0 1.4 0 2.82 0.01 1.29-0.01 1.29-0.01 2.6-0.01 1.14 0 1.14 0 2.3-0.01 1.78 0.07 1.78 0.07 2.75-1.12 2.81-0.38 5.61-0.71 8.44-1 5.44-0.37 5.44-0.37 10.6-2 1.41-0.18 2.83-0.32 4.25-0.44 2.82-0.28 5.04-0.66 7.75-1.56 3.4-1.14 6.58-1.46 10.1-1.76 1.87-0.05 1.87-0.05 2.86-1.24 1.97-0.37 3.95-0.7 5.94-1 4.16-0.57 4.16-0.57 8.06-2 1.6-0.14 3.22-0.23 4.83-0.28 0.96-0.04 1.93-0.08 2.92-0.12 1.01-0.03 2.02-0.07 3.06-0.1 1.99-0.07 3.97-0.14 5.96-0.22 0.88-0.03 1.76-0.06 2.67-0.09 2.61-0.14 2.61-0.14 5.32-0.77 0.74-0.14 1.48-0.28 2.24-0.42l1 1c1.52 0.08 3.04 0.14 4.56 0.19 7.61 0.7 11.9 4.94 16.8 10.5 4.01 4.86 4.92 8.18 4.86 14.4v2.4c-0.01 1.67-0.01 3.35-0.03 5.02-0.01 2.57-0.02 5.14-0.02 7.71 0 1.62-0.01 3.25-0.01 4.87-0.01 0.77-0.01 1.55-0.01 2.34-0.05 5.41-0.05 5.41-1.16 6.53-0.33 1.49-0.61 2.99-0.88 4.5-0.96 5.01-2.37 9.71-4.12 14.5-0.45 1.24-0.89 2.48-1.35 3.75-1.63 4.32-3.58 8.44-5.65 12.6-0.35 0.7-0.69 1.4-1.04 2.13-0.34 0.67-0.68 1.35-1.02 2.05-0.46 0.9-0.46 0.9-0.92 1.83-1.13 1.85-2.48 3.14-4.02 4.68-1 1.76-1.99 3.52-2.96 5.3-1.37 2.24-3.16 3.88-5.04 5.7-0.42 0.73-0.83 1.47-1.26 2.23-2.16 3.43-4.74 6.06-7.62 8.89-0.51 0.53-1.03 1.05-1.56 1.59-3 2.98-5.87 5.19-9.56 7.29-1.52 1.2-3.02 2.43-4.5 3.69-19.1 15.4-42.4 25.9-65.4 33.9-1.1 0.39-2.21 0.77-3.34 1.17-10.2 3.55-20.3 6.46-31 7.89-0.9 0.13-1.8 0.25-2.73 0.38-6.5 0.88-13 1.46-19.5 1.79-2.37-0.06-2.37-0.06-3.42 1.21-14.7 1.84-29.4 0.9-44-1-0.83-0.11-1.66-0.21-2.52-0.32-17-2.14-33.5-5.88-49.8-11.2-0.85-0.28-1.7-0.56-2.58-0.85-4.64-1.58-8.98-3.39-13.3-5.71-1.92-0.93-3.81-1.54-5.86-2.12-13.2-4.21-28.2-13-37.9-22.8-0.79-0.47-1.58-0.94-2.4-1.42-2.61-1.59-4.54-3.26-6.7-5.42-0.74-0.73-1.48-1.47-2.24-2.23-0.75-0.76-1.51-1.52-2.29-2.31-0.76-0.75-1.52-1.51-2.31-2.29l-2.23-2.23c-0.99-1-0.99-1-2.01-2.02-1.95-2.23-3.36-4.52-4.82-7.08-0.88-1.18-1.78-2.35-2.69-3.5-12.2-16.2-21-35.4-26.4-54.9-0.26-0.92-0.52-1.84-0.78-2.78-0.5-1.8-1-3.59-1.5-5.39-0.55-1.99-1.11-3.97-1.68-5.95-1.36-4.82-2.31-9.47-2.98-14.4-0.65-2.34-1.32-4.67-2-7-1.74-6.38-2.35-12.6-2.66-19.2-0.15-3.03-0.15-3.03-2.34-5.82-0.31-2.96-0.31-2.96-0.38-6.53-0.05-1.93-0.05-1.93-0.1-3.9-0.03-1.36-0.06-2.71-0.08-4.07-0.06-2.66-0.13-5.32-0.2-7.97-0.02-1.18-0.04-2.36-0.07-3.58-0.05-3.01-0.05-3.01-1.17-5.95-0.1-1.67-0.13-3.34-0.13-5 0-0.87 0-1.74-0.01-2.63 0.14-2.37 0.14-2.37 1.14-5.37 0.1-1.38 0.15-2.76 0.17-4.14 0.02-1.24 0.02-1.24 0.04-2.5 0.01-0.89 0.02-1.78 0.03-2.7 0.04-1.89 0.07-3.77 0.1-5.66 0.05-2.97 0.1-5.95 0.13-8.92 0.04-2.87 0.1-5.74 0.15-8.61 0.01-1.33 0.01-1.33 0.02-2.69 0.02-0.83 0.04-1.66 0.05-2.52 0.01-0.73 0.03-1.46 0.04-2.21 0.31-2.36 1.16-3.96 2.27-6.05 0.33-2.45 0.33-2.45 0.34-5.07 0.03-0.96 0.06-1.92 0.09-2.91 0.02-1 0.04-1.99 0.07-3.02 0.04-1.98 0.09-3.96 0.15-5.94 0.03-1.31 0.03-1.31 0.06-2.65 0.31-2.58 1.12-4.13 2.29-6.41 0.34-2.2 0.34-2.2 0.38-4.51 0.03-0.84 0.06-1.68 0.1-2.55 0.03-0.87 0.05-1.74 0.08-2.63 0.06-1.73 0.12-3.47 0.19-5.2 0.03-0.76 0.05-1.53 0.07-2.32 0.18-1.79 0.18-1.79 1.18-2.79 0.13-1.44 0.2-2.89 0.24-4.33 0.04-0.89 0.07-1.77 0.1-2.67 0.06-1.87 0.12-3.73 0.18-5.59 0.05-1.33 0.05-1.33 0.1-2.68 0.02-0.81 0.05-1.62 0.07-2.46 0.33-2.47 1.17-4.07 2.31-6.27 0.24-2.69 0.41-5.31 0.5-8 0.23-7.47 0.23-7.47 1.49-9.96 1.66-3.38 1.44-7.01 1.57-10.7 0.32-8.19 0.32-8.19 1.44-9.31 0.18-2.4 0.33-4.79 0.44-7.19 0.23-5.05 0.95-9.05 2.56-13.8 0.23-2.31 0.4-4.62 0.5-6.94 0.29-5.02 1.09-9.23 2.5-14.1 0.33-3.4 0.56-6.8 0.75-10.2 0.25-2.79 0.25-2.79 1.25-4.79 0.28-3.47 0.44-6.95 0.62-10.4 0.37-3.5 1.27-6.27 2.38-9.58 0.23-2.31 0.4-4.62 0.5-6.94 0.29-5.02 1.09-9.23 2.5-14.1 0.33-3.44 0.56-6.86 0.75-10.3 0.25-2.69 0.25-2.69 1.25-3.69 0.18-2.4 0.33-4.79 0.44-7.19 0.23-5.05 0.95-9.05 2.56-13.8 0.23-2.33 0.39-4.67 0.5-7 0.21-4.77 0.99-8.5 2.5-13 0.25-2.27 0.44-4.54 0.56-6.81 0.34-6.09 0.34-6.09 1.44-7.19 0.24-3.34 0.39-6.67 0.52-10 0.18-3.91 0.73-6.55 2.48-9.99 0.24-2.5 0.4-5 0.5-7.5 0.28-7.07 0.28-7.07 1.49-9.46 1.59-3.24 1.44-6.69 1.57-10.2 0.32-7.69 0.32-7.69 1.44-8.81 0.24-3.1 0.39-6.18 0.52-9.28 0.2-4.02 0.95-7.03 2.48-10.7 0.23-2.12 0.4-4.25 0.5-6.38 0.3-4.85 1.14-8.95 2.5-13.6 0.33-3.14 0.56-6.28 0.75-9.43 0.25-2.57 0.25-2.57 1.25-4.57 0.23-3.14 0.39-6.27 0.52-9.42 0.19-3.76 0.77-6.28 2.48-9.58 0.24-2.14 0.4-4.29 0.5-6.44 0.2-4.39 0.88-7.52 2.5-11.6 0.26-2.2 0.44-4.41 0.56-6.63 0.19-3.41 0.35-6.12 1.44-9.37 0.27-3 0.44-5.99 0.62-8.99 0.38-3.01 0.38-3.01 1.38-5.49 1.59-4.04 1.45-8.16 1.65-12.5 0.35-3.06 0.35-3.06 1.34-5.05 1.43-2.87 1.4-5.52 1.57-8.7 0.34-6.21 0.34-6.21 1.44-7.31 0.28-2.97 0.45-5.94 0.62-8.92 0.38-3.08 0.38-3.08 1.38-5.56 1.6-4.04 1.45-8.16 1.65-12.5 0.35-3.06 0.35-3.06 1.34-5.05 1.43-2.87 1.4-5.52 1.57-8.7 0.34-6.21 0.34-6.21 1.44-7.31 0.28-2.97 0.45-5.94 0.62-8.92 0.38-3.08 0.38-3.08 1.38-5.56 1.6-4.04 1.45-8.16 1.65-12.5 0.34-2.98 1.03-4.45 2.35-7.06 0.26-2.04 0.44-4.08 0.56-6.13 0.34-5.68 0.34-5.68 1.44-7.87 0.36-2.5 0.7-4.99 1-7.5 0.86-7.23 0.86-7.23 2-9.5 0.35-1.91 0.65-3.83 0.94-5.75 0.25-1.73 0.25-1.73 0.52-3.5 0.37-2.56 0.73-5.13 1.08-7.69 0.26-1.89 0.26-1.89 0.52-3.81 0.16-1.17 0.31-2.34 0.47-3.55 0.47-2.7 0.47-2.7 1.47-3.7 0.28-3.27 0.45-6.53 0.62-9.8 0.36-3.05 1.04-4.53 2.38-7.2 0.24-2.14 0.4-4.29 0.5-6.44 0.2-4.38 0.84-7.53 2.5-11.6 0.25-1.89 0.44-3.79 0.56-5.69 0.34-5.12 0.34-5.12 1.44-7.31 0.36-2.14 0.69-4.29 1-6.44 0.48-3.34 0.93-6.36 2-9.56 0.26-2.74 0.44-5.47 0.62-8.21 0.38-2.79 0.38-2.79 1.38-5.26 1.17-2.97 1.37-5.53 1.56-8.72 0.34-5.62 0.34-5.62 1.44-7.81 0.36-2.14 0.69-4.29 1-6.44 0.48-3.34 0.93-6.36 2-9.56 0.26-2.74 0.44-5.47 0.62-8.21 0.38-2.79 0.38-2.79 1.38-5.29 1.12-2.81 1.37-5.18 1.56-8.19 0.34-5.12 0.34-5.12 1.44-7.31 0.37-2.65 0.7-5.29 1-7.94 0.86-7.66 0.86-7.66 2-11.1 0.27-3.26 0.44-6.51 0.62-9.78 0.38-3.22 0.38-3.22 1.38-5.66 1.56-4 1.46-8.05 1.65-12.3 0.26-5.09 0.26-5.09 1.35-7.26 0.13-1.48 0.2-2.95 0.24-4.43 0.04-0.88 0.07-1.76 0.1-2.66l0.18-5.55c0.03-0.88 0.06-1.76 0.1-2.67 0.02-0.8 0.05-1.61 0.07-2.43 0.31-2.26 0.31-2.26 1.31-4.13 1.41-3.01 1.29-5.63 1.34-8.94 0.02-0.66 0.03-1.31 0.05-1.98 0.04-2.07 0.08-4.14 0.11-6.21 0.04-2.73 0.09-5.46 0.15-8.19 0.03-1.82 0.03-1.82 0.06-3.67 0.28-3.01 0.82-4.57 2.29-7.14 0.39-2.81 0.39-2.81 0.37-5.81 0.03-1 0.06-2 0.09-3.02-0.59-4.08-1.83-7-4.46-10.2-10.2-6.39-23.3-8.04-35-10-1.24-0.22-2.48-0.43-3.76-0.65-7.38-1.18-14.7-1.7-22.2-2.01-5.66-0.25-5.66-0.25-8-0.84-2.24-0.55-4.29-0.69-6.6-0.78-0.89-0.04-1.78-0.08-2.71-0.12-0.95-0.03-1.91-0.07-2.9-0.1-0.98-0.04-1.97-0.08-2.99-0.13-4.23-0.17-8.46-0.33-12.7-0.5-3.08-0.12-6.17-0.25-9.25-0.37-0.97-0.04-1.93-0.07-2.92-0.11-0.89-0.04-1.77-0.07-2.69-0.11-0.78-0.03-1.56-0.06-2.37-0.09-1.92-0.19-1.92-0.19-3.92-1.19-2.83-0.1-5.64-0.14-8.48-0.13-0.87 0-1.75-0.01-2.65-0.01h-8.72-6.04c-4.22 0-8.44 0-12.7 0.01-5.42 0-10.8 0-16.3-0.01h-12.5-6c-2.79 0-5.58 0-8.37 0.01-1.25 0-1.25 0-2.53-0.01-3.71-0.34-3.71-0.34-6.81 1.14-1.47 0.14-2.94 0.22-4.41 0.28-1.41 0.05-1.41 0.05-2.85 0.11-1.02 0.04-2.04 0.07-3.09 0.11-1.04 0.04-2.08 0.08-3.15 0.12-4.46 0.17-8.93 0.34-13.4 0.5-3.25 0.12-6.51 0.25-9.76 0.38-1.02 0.03-2.04 0.07-3.09 0.1-1.41 0.06-1.41 0.06-2.84 0.12-0.83 0.03-1.66 0.06-2.51 0.09-1.91-0.01-1.91-0.01-2.9 1.19-1.35 0.12-2.71 0.18-4.07 0.21-0.87 0.02-1.73 0.05-2.62 0.08-0.95 0.03-1.9 0.05-2.87 0.08-27.6-0.35-27.6-0.35-52.4 7.63-2.44 0.54-4.9 0.96-7.36 1.4-3.97 0.89-3.97 0.89-7.64 2.6-1.63 2.98-1.63 2.98-2.69 6.56-0.21 0.63-0.42 1.26-0.63 1.91-1.33 4.11-2.39 8.23-3.22 12.5-0.5 2.24-1.2 4.34-1.96 6.5-1.11 3.2-1.89 6.3-2.5 9.63-0.69 3.67-1.68 6.98-3.08 10.4-1.6 4.31-2.88 8.72-4.21 13.1-1.61 5.26-1.61 5.26-2.71 6.37-0.33 1.49-0.61 2.99-0.88 4.5-0.65 3.39-1.42 6.61-2.56 9.87-2.83 8.12-4.62 16.5-6.09 24.9-0.49 2.78-1 5.55-1.53 8.31-0.16 0.82-0.32 1.64-0.48 2.48-0.46 1.9-0.46 1.9-1.46 2.9-0.38 2.3-0.7 4.62-1 6.93-0.89 6.85-0.89 6.85-2 9.07-0.56 3.37-1.03 6.74-1.5 10.1-0.5 2.87-0.5 2.87-1.5 3.87-0.21 1.49-0.37 2.99-0.5 4.5-0.39 4.39-0.39 4.39-1.5 5.5-0.37 1.64-0.7 3.28-1 4.93-0.9 4.85-0.9 4.85-2 7.07-0.27 2.23-0.45 4.47-0.62 6.71-0.38 2.29-0.38 2.29-1.38 4.22-1.27 2.62-1.38 4.86-1.56 7.76-0.34 5.21-0.34 5.21-1.44 6.31-0.31 1.7-0.57 3.41-0.82 5.12-0.77 4.93-1.89 9.64-3.24 14.4-1.54 5.53-2.47 10.7-2.77 16.5-0.17 1.98-0.17 1.98-1.17 2.98-0.37 2.32-0.7 4.66-1 7-0.89 6.89-0.89 6.89-2 8-0.29 2.48-0.45 4.96-0.62 7.45-0.38 2.55-0.38 2.55-1.38 4.52-1.29 2.6-1.38 4.83-1.56 7.72-0.34 5.21-0.34 5.21-1.44 6.31-0.37 2.16-0.7 4.33-1 6.5-0.89 6.39-0.89 6.39-2 7.5-0.37 1.99-0.7 3.99-1 6-0.89 5.89-0.89 5.89-2 7-0.21 1.49-0.37 2.99-0.5 4.5-0.39 4.39-0.39 4.39-1.5 5.5-0.37 2.16-0.7 4.33-1 6.5-0.89 6.39-0.89 6.39-2 7.5-0.37 1.66-0.7 3.33-1 5-0.89 4.89-0.89 4.89-2 6-0.21 1.99-0.37 3.99-0.5 6-0.39 5.89-0.39 5.89-1.5 7-0.37 1.66-0.7 3.33-1 5-0.89 4.89-0.89 4.89-2 6-0.37 1.64-0.7 3.28-1 4.93-0.9 4.85-0.9 4.85-2 7.07-0.31 2.59-0.51 5.18-0.72 7.78-0.28 2.22-0.28 2.22-1.28 3.22-0.33 1.76-0.61 3.53-0.88 5.31-2.76 17.3-2.76 17.3-5.12 19.7-0.21 1.99-0.37 3.99-0.5 6-0.39 5.89-0.39 5.89-1.5 7-0.37 1.66-0.7 3.33-1 5-0.89 4.89-0.89 4.89-2 6-0.29 2.48-0.45 4.96-0.62 7.45-0.39 2.61-1.2 4.23-2.38 6.55-0.41 2.32-0.41 2.32-0.56 4.69-0.34 4.21-0.34 4.21-1.44 5.31-0.37 1.99-0.7 3.99-1 6-0.89 5.89-0.89 5.89-2 7-0.37 1.97-0.7 3.95-1 5.93-0.89 5.85-0.89 5.85-2 8.07-0.31 2.33-0.51 4.66-0.72 7-0.28 2-0.28 2-1.28 3-0.33 1.78-0.61 3.58-0.88 5.37-2.18 13.8-2.18 13.8-5.12 19.6-0.32 2.85-0.51 5.7-0.72 8.56-0.28 2.44-0.28 2.44-1.28 3.44-0.37 1.66-0.7 3.33-1 5-0.89 4.89-0.89 4.89-2 6-0.36 1.97-0.66 3.95-0.94 5.93-2.43 16.4-2.43 16.4-4.06 18.1-0.33 1.78-0.61 3.58-0.88 5.37-2.18 13.8-2.18 13.8-5.12 19.6-0.32 2.85-0.51 5.7-0.72 8.56-0.28 2.44-0.28 2.44-1.28 3.44-0.37 1.66-0.7 3.33-1 5-0.89 4.89-0.89 4.89-2 6-0.36 1.97-0.66 3.95-0.94 5.93-1.01 6.83-2.06 13.6-3.98 20.2-1.28 4.54-2.38 9.11-3.46 13.7-0.21 0.91-0.43 1.83-0.65 2.77-1.06 4.48-2.11 8.96-3.15 13.4-0.27 1.17-0.27 1.17-0.55 2.36-0.34 1.47-0.68 2.94-1.02 4.4-1.14 4.94-1.14 4.94-2.25 7.16-0.35 1.83-0.65 3.66-0.94 5.5-0.66 4.07-1.34 8.13-2.12 12.2-0.16 0.8-0.32 1.61-0.48 2.44-0.46 1.87-0.46 1.87-1.46 2.87-0.37 1.66-0.7 3.33-1 5-0.89 4.89-0.89 4.89-2 6-0.36 1.47-0.66 2.95-0.94 4.43-0.17 0.9-0.35 1.79-0.52 2.72-0.18 0.94-0.36 1.88-0.54 2.85-0.35 1.85-0.71 3.71-1.06 5.56-0.16 0.83-0.32 1.65-0.48 2.5-0.46 1.94-0.46 1.94-1.46 2.94-0.37 1.66-0.7 3.33-1 5-0.89 4.89-0.89 4.89-2 6-0.36 1.47-0.66 2.95-0.94 4.43-0.18 0.91-0.35 1.81-0.53 2.75-0.34 1.79-0.67 3.59-1 5.39-0.9 4.79-2.08 9.3-3.68 13.9-3.03 8.97-5.26 18.1-7.35 27.3-1.24 5.36-2.87 10.5-4.7 15.7-0.93 2.66-0.93 2.66-1.3 6.2-0.46 3.04-1.14 4.88-2.44 7.62-1.92 4.06-2.8 7.88-3.57 12.3-0.47 2.27-1.12 4.25-1.99 6.4-1.14 2.83-1.85 5.49-2.38 8.5-1.81 9.8-5.14 19.4-8.97 28.6-1.6 4.03-2.99 8.12-4.4 12.2-8.98 25.9-19.3 51.1-31.3 75.7-1.5 3.09-2.98 6.19-4.45 9.3-8.57 18-17.5 35.7-28 52.7-0.49 0.82-0.98 1.64-1.49 2.49-4.97 8.23-10.2 16.3-15.8 24.1-1.2 1.7-2.39 3.4-3.58 5.12-0.61 0.89-1.23 1.78-1.86 2.7-0.55 0.81-1.11 1.61-1.67 2.44-1.42 1.9-2.9 3.47-4.58 5.13-0.68 1.17-0.68 1.17-1.38 2.37-1.86 3.01-4.09 5.16-6.62 7.63-1.62 1.99-2.94 3.87-4.13 6.15-2.6 3.96-5.83 7.11-9.17 10.4-0.72 0.72-1.43 1.44-2.17 2.18-1.5 1.51-3.02 3.02-4.53 4.53-2.31 2.3-4.6 4.62-6.89 6.94l-4.41 4.41c-0.68 0.69-1.37 1.38-2.07 2.09-3.67 3.64-6.88 6.07-11.6 8.25-1.8 1.57-1.8 1.57-3.29 3.32-3.9 4.06-8.23 6.75-13.1 9.55-0.87 0.51-1.74 1.02-2.63 1.55-5.69 3.32-11.4 6.53-17.2 9.64-0.67 0.36-1.33 0.72-2.02 1.08-6.79 3.56-13 6.14-20.7 6.55-1.14 0.06-2.27 0.13-3.44 0.19-0.85 0.04-1.69 0.08-2.56 0.12v2c-10.2 0.48-19.1-0.17-29-3.35-2.25-0.72-4.51-1.4-6.77-2.08-1.61-0.5-3.23-1-4.83-1.51-0.76-0.23-1.51-0.46-2.28-0.69-5.08-1.67-8.19-3.81-12.2-7.37-1.23-0.71-1.23-0.71-2.48-1.44-3.41-2.11-6.03-4.78-8.84-7.63-0.82-0.81-0.82-0.81-1.66-1.64-4.02-4.04-4.02-4.04-4.02-6.29h-2c-0.94-1.63-1.87-3.26-2.8-4.9-0.79-1.38-1.59-2.75-2.41-4.11-5.12-8.77-9.19-17.9-9.65-28.2 0.06-1.85 0.06-1.85-1.14-2.83-0.1-2.06-0.13-4.13-0.14-6.19v-3.8c0-0.66 0-1.32 0.01-2 0-2 0-4.01-0.01-6.02v-3.8c0.01-1.17 0.01-2.33 0.01-3.52 0.13-2.67 0.13-2.67 1.13-3.67 0.24-3.1 0.39-6.18 0.52-9.28 0.15-2.9 0.35-5.4 1.44-8.11 1.1-2.77 1.55-5.26 1.96-8.21 0.97-6.13 2.48-12 4.26-17.9 0.31-1.03 0.62-2.07 0.93-3.13 2.98-9.91 6.29-19.7 9.89-29.4 0.37-1.02 0.37-1.02 0.76-2.06 3.74-10 8.33-19.5 13.2-28.9 0.47-0.92 0.94-1.84 1.43-2.79 1.56-3.03 3.13-6.06 4.69-9.09 0.49-0.95 0.98-1.9 1.49-2.88 3.91-7.5 7.92-15 13-21.8 1.82-2.47 3.35-4.99 4.81-7.68 5.07-9.32 11.1-18.1 17-26.9 1.68-2.51 3.35-5.02 5-7.54 5.65-8.59 11.6-16.9 17.6-25.2 2.85-3.91 5.63-7.87 8.39-11.8 1.75-2.49 3.54-4.94 5.34-7.39 11.5-15.8 22.1-32.1 32.4-48.7 2.29-3.7 4.61-7.38 6.96-11 0.54-0.83 1.07-1.66 1.61-2.52 1.03-1.59 2.05-3.19 3.08-4.78 3.02-4.74 5.64-9.56 8.1-14.6 1.22-2.47 2.58-4.81 4.04-7.15 2.14-3.51 4.17-7.06 6.12-10.7 2.48-4.58 5.14-8.98 7.94-13.4 4.29-6.85 8.47-13.7 12.3-20.8 2.22-4.13 4.49-8.23 6.76-12.3 0.41-0.75 0.82-1.5 1.25-2.27 2-3.61 4.05-7.15 6.26-10.6 2.34-3.7 4.29-7.49 6.18-11.4 2.74-5.61 5.64-11.1 8.75-16.5 4.11-7.21 7.86-14.6 11.5-22 1.65-3.34 3.32-6.67 4.99-10 0.66-1.34 1.33-2.67 2-4l7.01-14c1.6-3.22 3.21-6.43 4.85-9.63 4.81-9.48 9.28-19.1 13.7-28.8 2.86-6.24 5.8-12.4 8.94-18.5 2.54-4.97 4.65-9.93 6.44-15.2 1.33-3.57 2.92-6.97 4.56-10.4 2.34-4.93 4.55-9.88 6.54-15 2.44-6.27 4.91-12.6 8.02-18.5 4.87-9.49 7.75-20.1 11.2-30.2l2.4-7.02c1.24-3.62 2.48-7.25 3.72-10.9 0.53-1.57 1.07-3.13 1.6-4.69 1.39-4.09 2.6-8.17 3.58-12.4 0.66-2.82 1.32-5.46 2.41-8.14 1.31-3.32 2.13-6.71 2.97-10.2 0.17-0.69 0.34-1.39 0.52-2.11 0.81-3.33 1.62-6.67 2.43-10 0.26-1.08 0.52-2.15 0.79-3.26 0.24-0.96 0.47-1.92 0.7-2.9 0.62-2.16 0.62-2.16 1.62-3.16 0.3-1.37 0.57-2.75 0.81-4.13 0.82-4.27 1.85-8.43 3-12.6 2.72-10 4.94-20.1 7.19-30.2 0.27-1.23 0.27-1.23 0.55-2.47 1.09-4.84 2.07-9.69 2.98-14.6 0.47-1.97 0.47-1.97 1.47-2.97 0.3-1.7 0.57-3.42 0.81-5.13 0.78-4.95 1.89-9.74 3.25-14.6 1.52-5.49 2.45-10.6 2.94-16.3l1-1c0.33-1.91 0.61-3.83 0.87-5.75 0.85-5.73 2-11.3 3.34-16.9 2.19-9.2 4.05-18.4 5.36-27.8 0.43-2.54 0.43-2.54 1.43-4.54 0.18-1.58 0.32-3.17 0.44-4.75 0.36-4.05 1.27-7.39 2.56-11.2 0.33-2.61 0.56-5.21 0.75-7.83 0.25-2.17 0.25-2.17 1.25-4.17 0.36-2 0.69-4 1-6 0.89-5.78 0.89-5.78 2-8 0.28-3.25 0.44-6.49 0.62-9.74 0.37-3.16 1.2-5.35 2.38-8.26 0.25-2.08 0.44-4.16 0.56-6.25 0.34-5.65 0.34-5.65 1.44-6.75 0.28-3.27 0.45-6.53 0.62-9.8 0.36-3.05 1.04-4.53 2.38-7.2 0.24-2.14 0.4-4.29 0.5-6.44 0.2-4.39 0.86-7.52 2.5-11.6 0.25-2.08 0.44-4.16 0.56-6.25 0.34-5.65 0.34-5.65 1.44-6.75 0.18-2.04 0.32-4.08 0.44-6.13 0.33-4.93 1.2-9.12 2.56-13.9 0.29-3.31 0.5-6.6 0.65-9.92 0.35-3.08 0.35-3.08 1.34-5.5 1.56-4.01 1.47-8.06 1.66-12.3 0.26-5.09 0.26-5.09 1.35-7.26 0.13-1.66 0.2-3.32 0.24-4.98 0.04-1 0.07-2 0.1-3.03l0.18-6.3c0.19-5.62 0.81-10.3 2.48-15.7 0.01-3.48-0.43-6.86-2-10-0.04-2-0.05-4 0-6-0.56-0.11-1.12-0.22-1.7-0.33-6.1-1.21-12.2-2.52-18.2-3.89-11.4-2.31-22.8-3.22-34.4-3.85-2.1-0.11-4.21-0.23-6.32-0.35-1.87-0.11-3.75-0.21-5.63-0.32-2.73-0.26-2.73-0.26-3.73-1.26-1.41-0.12-2.83-0.18-4.25-0.21-0.9-0.02-1.8-0.04-2.73-0.06-0.98-0.01-1.96-0.03-2.96-0.05s-2-0.04-3.03-0.06c-3.2-0.07-6.4-0.13-9.59-0.19-2.17-0.04-4.33-0.08-6.5-0.13-5.31-0.1-10.6-0.2-15.9-0.3v2c-1.05 0.05-2.1 0.11-3.18 0.17-3.89 0.2-7.78 0.41-11.7 0.63-1.68 0.09-3.36 0.18-5.05 0.27-2.42 0.13-4.83 0.26-7.25 0.39-0.76 0.04-1.51 0.08-2.29 0.12-3.91 0.16-3.91 0.16-7.56 1.42-2.17 0.16-4.33 0.28-6.5 0.37-12.8 0.73-25.2 2.99-37.5 6.73-2.49 0.74-4.91 1.3-7.46 1.77-13 2.81-25.4 9.77-37.2 15.7-2.64 1.31-5.28 2.62-7.93 3.92-8.27 4.1-16.1 8.19-23.4 13.9-1.97 1.49-3.86 2.57-6.1 3.59v2h-4v2c-1.65 1.58-1.65 1.58-3.82 3.37-3.55 2.94-6.18 5.75-8.36 9.84-2.37 3.63-5.26 6.43-8.35 9.44-0.64 0.63-1.27 1.25-1.92 1.9-2.69 2.66-5.4 5.31-8.1 7.95-1.98 1.95-3.95 3.89-5.92 5.84-0.61 0.59-1.22 1.19-1.85 1.8-3.12 3.09-5.57 5.96-7.68 9.86-15.6 19-15.6 19-24 22-0.87 0.7-1.74 1.4-2.63 2.12-2.37 1.88-2.37 1.88-5.37 1.88v2h-8v2l-16-2v-2c-0.66-0.06-1.32-0.13-2-0.19-4.21-1.14-7.4-3.41-11-5.81-1.01-0.62-2.02-1.24-3.06-1.88-8.21-5.93-14.2-13.5-16.5-23.6-0.21-1.82-0.34-3.65-0.44-5.48l-1-1c-0.1-2.15-0.13-4.29-0.13-6.44 0-1.17 0-2.35-0.01-3.56 0.14-3 0.14-3 1.14-5 0.32-1.96 0.6-3.92 0.87-5.88 1.63-10.8 4.47-20.6 8.66-30.6 1.18-2.82 2.27-5.66 3.34-8.52 4.13-10.2 9.81-19.7 15.8-29 0.67-1.04 0.67-1.04 1.34-2.1 2.66-4.07 5.52-7.78 8.76-11.4 1.71-2.01 2.96-4.22 4.28-6.5 2.06-2.81 2.06-2.81 4-5h2v-2h2v-2h2c0.24-0.54 0.49-1.07 0.75-1.63 2.78-5.28 6.17-9.55 10.4-13.8 0.75-0.76 0.75-0.76 1.51-1.52 1.63-1.65 3.27-3.28 4.91-4.91 1.15-1.15 2.29-2.3 3.44-3.45 2.4-2.39 4.79-4.79 7.2-7.18 3.07-3.06 6.12-6.13 9.18-9.19 2.36-2.37 4.73-4.74 7.1-7.1l3.39-3.39c1.57-1.59 3.16-3.16 4.75-4.74 1.34-1.35 1.34-1.35 2.72-2.72 7.09-6.41 7.09-6.41 10.7-6.41v-2c1.29-1.19 1.29-1.19 3.18-2.57 0.72-0.52 1.44-1.04 2.18-1.58 1.98-1.39 3.97-2.77 5.96-4.14 0.57-0.4 1.15-0.79 1.74-1.2 1.15-0.79 2.3-1.57 3.46-2.35 2.16-1.48 4.22-2.9 6.06-4.77 1.87-1.84 3.89-2.82 6.23-4.02 4.43-2.35 8.64-4.92 12.8-7.68 5.93-3.9 12-7.27 18.3-10.5 3.77-1.95 7.44-3.96 11-6.23 9.99-6.14 21.1-10.7 32-14.9 1.86-0.75 3.72-1.51 5.57-2.26 8.03-3.25 16-6.21 24.4-8.22 2.13-0.55 4.19-1.24 6.27-1.96 7.77-2.64 15.6-4.6 23.7-5.32 2.28-0.22 2.28-0.22 5.45-1.24 3.84-1.08 7.45-1.46 11.4-1.76 2.19-0.12 2.19-0.12 4.14-1.24 1.36-0.21 2.73-0.37 4.1-0.5 0.8-0.09 1.6-0.17 2.42-0.25 1.7-0.17 3.39-0.34 5.09-0.5 4.02-0.05 4.02-0.05 7.39-1.75 2.52-0.14 5.02-0.21 7.54-0.25 1.56-0.03 3.13-0.06 4.69-0.1 2.47-0.05 4.95-0.09 7.42-0.13 2.38-0.04 4.76-0.09 7.14-0.14 0.73-0.01 1.46-0.02 2.22-0.03 4.39-0.1 7.86-0.92 12-2.35 2.97-0.26 2.97-0.26 6.06-0.27 1.13 0 2.25 0 3.41-0.01 1.75 0.02 1.75 0.02 3.53 0.03 1.16-0.01 2.32-0.02 3.52-0.03 1.13 0.01 2.25 0.01 3.42 0.01 1.52 0.01 1.52 0.01 3.08 0.01 2.98 0.26 2.98 0.26 5.65 1.25 4.85 1.47 9.56 1.35 14.6 1.39 1.07 0.01 2.15 0.03 3.26 0.05 3.43 0.05 6.85 0.09 10.3 0.13 3.44 0.04 6.89 0.09 10.3 0.14 2.14 0.03 4.29 0.06 6.43 0.08 0.96 0.02 1.92 0.03 2.91 0.04 0.85 0.01 1.7 0.02 2.58 0.03 1.94 0.15 1.94 0.15 2.94 1.15 1.6 0.15 3.22 0.24 4.83 0.3 1.05 0.04 2.11 0.08 3.2 0.12 1.17 0.03 2.35 0.07 3.56 0.11 1.23 0.04 2.47 0.08 3.74 0.12 19.2 0.6 38.3 0.71 57.5 0.9 4.26 0.04 8.53 0.09 12.8 0.14 2.38 0.03 4.76 0.05 7.15 0.07 1.44 0.01 2.89 0.03 4.33 0.05 1.26 0.01 2.52 0.02 3.82 0.04 3.06 0.15 3.06 0.15 6.06 1.15 2.67 0.11 5.32 0.16 7.99 0.17 1.23 0.01 1.23 0.01 2.47 0.02 1.78 0.02 3.55 0.03 5.32 0.04 2.82 0.01 5.64 0.04 8.46 0.06 8.02 0.07 16 0.13 24 0.18 4.9 0.04 9.81 0.08 14.7 0.12 1.86 0.02 3.72 0.03 5.58 0.04 8.34 0.04 16.5 0.11 24.8 1.37 9.92 1.49 19.9 1.33 29.9 1.38 2.12 0.01 4.25 0.03 6.37 0.05 5.56 0.04 11.1 0.08 16.7 0.11 8.9 0.05 17.8 0.12 26.7 0.19 3.09 0.02 6.17 0.04 9.25 0.05 1.92 0.02 3.83 0.03 5.74 0.04 0.84 0.01 1.68 0.01 2.55 0.01 5.5 0.05 10.9 0.43 16.4 0.92 5.05 0.41 10.1 0.61 15.2 0.8 1.12 0.04 2.24 0.08 3.4 0.13 12.2 0.42 24.5 0.48 36.7 0.49 2.42 0 4.85 0 7.28 0.01h15.1c5.11 0 10.2 0.01 15.3 0.02 33.6 0.28 33.6 0.28 67.2-1.46 11.5-0.95 23.1-1 34.7-1.09 1.05 0 2.11-0.01 3.19-0.02 8.74-0.07 17.5-0.11 26.2-0.15 6.58-0.03 13.2-0.07 19.7-0.12 3.04-0.02 6.09-0.03 9.14-0.03 1.86-0.02 3.73-0.03 5.6-0.05 0.83 0.01 1.66 0.01 2.52 0.01 5.27-0.06 9.74-0.92 14.8-2.29 2.59-0.27 2.59-0.27 4.84-0.31 1.28-0.02 1.28-0.02 2.59-0.05 0.9 0 1.8-0.01 2.72-0.02 0.94-0.02 1.88-0.04 2.85-0.05 2.98-0.06 5.96-0.1 8.94-0.14 3-0.04 6-0.09 9-0.14 1.87-0.03 3.73-0.06 5.59-0.08 4.06 0.34 4.06 0.34 7.47-1.21 2.1-0.22 4.22-0.37 6.33-0.5 1.3-0.09 2.59-0.17 3.92-0.25 1.37-0.09 2.75-0.17 4.12-0.25 2.68-0.16 5.35-0.33 8.03-0.5 1.19-0.07 2.38-0.15 3.61-0.22 3.04-0.17 3.04-0.17 5.99-1.28 3.46-0.23 6.93-0.39 10.4-0.52 3.71-0.17 7.15-0.53 10.8-1.49 3.52-0.91 6.61-1.31 10.2-1.49 4.93-0.32 9.58-0.97 14.4-2.03 2.09-0.44 4.17-0.76 6.29-1.04 2.82-0.12 2.82-0.12 3.94-1.43 1.93-0.36 3.87-0.66 5.81-0.94 1.17-0.17 2.33-0.35 3.54-0.52 1.2-0.18 2.41-0.36 3.65-0.54 2.25-0.35 4.5-0.7 6.75-1.07 0.98-0.15 1.97-0.31 2.98-0.47 2.23-0.24 2.23-0.24 3.27-1.46 3.35-0.58 6.72-1.03 10.1-1.5 2.79-0.19 2.79-0.19 3.91-1.5 2.01-0.5 4.03-0.95 6.06-1.38 1.26-0.26 2.52-0.53 3.82-0.8 5.49-1.11 11-2.1 16.5-3.08 3.5-0.64 3.5-0.64 6.38-1.71 4.66-1.5 9.4-2.22 14.2-3.03 1.18-0.2 2.35-0.41 3.57-0.61 4.5-0.77 8.99-1.54 13.5-2.29 1.93-0.32 3.86-0.65 5.79-0.98 1.13-0.19 2.26-0.38 3.43-0.58 2.67-0.41 2.67-0.41 4.72-1.54 1.89-0.18 3.79-0.32 5.68-0.44 3.46-0.26 6.36-0.57 9.69-1.56 4.88-1.35 9.68-1.5 14.7-1.76 2.81 0.08 2.81 0.08 3.92-1.24 1.76-0.22 3.54-0.37 5.31-0.5 1.08-0.08 2.15-0.17 3.26-0.25 2.28-0.17 4.57-0.34 6.86-0.5 1.07-0.08 2.15-0.17 3.25-0.25 1-0.07 1.99-0.15 3.02-0.22 12-1.47 12-1.47 16.9-1.47z" fill="#000204"/>
<path transform="translate(1331,1057)" d="m0 0c2.06 0.44 2.06 0.44 4 1-0.19 0.89-0.39 1.79-0.59 2.71-1.39 6.49-2.77 13-3.98 19.5-0.43 1.79-0.43 1.79-1.43 2.79-0.37 1.66-0.7 3.33-1 5-0.89 4.89-0.89 4.89-2 6-0.35 1.47-0.66 2.95-0.94 4.44-0.26 1.34-0.26 1.34-0.52 2.71-0.27 1.41-0.27 1.41-0.54 2.85-0.35 1.85-0.7 3.71-1.06 5.56-0.24 1.24-0.24 1.24-0.48 2.51-0.46 1.93-0.46 1.93-1.46 2.93-0.37 2.16-0.7 4.33-1 6.5-0.89 6.39-0.89 6.39-2 7.5-0.37 1.99-0.7 4-1 6-0.89 5.89-0.89 5.89-2 7-0.21 1.83-0.37 3.66-0.5 5.5-0.39 5.39-0.39 5.39-1.5 6.5-0.37 2.16-0.7 4.33-1 6.5-0.89 6.39-0.89 6.39-2 7.5-0.37 2.16-0.7 4.33-1 6.5-0.89 6.39-0.89 6.39-2 7.5-0.21 1.83-0.37 3.66-0.5 5.5-0.39 5.39-0.39 5.39-1.5 6.5-0.37 2.16-0.7 4.33-1 6.5-0.89 6.39-0.89 6.39-2 7.5-0.37 2.16-0.7 4.33-1 6.5-0.89 6.39-0.89 6.39-2 7.5-0.21 1.83-0.37 3.66-0.5 5.5-0.39 5.39-0.39 5.39-1.5 6.5-0.37 2.16-0.7 4.33-1 6.5-0.89 6.39-0.89 6.39-2 7.5-0.37 2.16-0.7 4.33-1 6.5-0.89 6.39-0.89 6.39-2 7.5-0.21 1.83-0.37 3.66-0.5 5.5-0.39 5.39-0.39 5.39-1.5 6.5-0.37 2.16-0.7 4.33-1 6.5-0.89 6.39-0.89 6.39-2 7.5-0.37 2.16-0.7 4.33-1 6.5-0.89 6.39-0.89 6.39-2 7.5-0.21 1.83-0.37 3.66-0.5 5.5-0.39 5.39-0.39 5.39-1.5 6.5-0.37 2.16-0.7 4.33-1 6.5-0.89 6.39-0.89 6.39-2 7.5-0.29 2.74-0.45 5.49-0.62 8.24-0.38 2.76-0.38 2.76-1.38 4.73-1.35 2.74-1.39 5.18-1.56 8.22-0.34 5.71-0.34 5.71-1.44 6.81-0.21 1.46-0.37 2.93-0.5 4.4-0.08 0.89-0.16 1.78-0.25 2.7-0.08 0.94-0.16 1.87-0.25 2.84-0.16 1.84-0.33 3.68-0.5 5.52-0.07 0.83-0.14 1.65-0.22 2.49-0.28 2.05-0.28 2.05-1.28 4.05-0.24 3.89-0.19 7.79-0.19 11.7-0.01 1.07-0.02 2.15-0.03 3.26-0.02 5.78 0.28 10.6 2.22 16 0.2 0.71 0.4 1.42 0.61 2.15 2.27 6.98 6.72 12.6 13.1 16.3 4.86 2.17 9.99 2.37 15.2 2.56v2c12.5-0.5 12.5-0.5 24.8-2.53 2.24-0.49 4.45-0.78 6.72-1.03 3.27-0.06 3.27-0.06 4.44-1.44 1.51-0.32 3.04-0.61 4.56-0.88 4.02-0.76 7.65-1.81 11.4-3.33 2.18-0.86 4.39-1.58 6.62-2.29 2.63-0.86 4.9-1.76 7.38-3 2.42-1.21 4.51-2.02 7.07-2.81 14.9-4.92 28.4-13.4 41.4-22.1 0.87-0.58 0.87-0.58 1.76-1.18 5.81-3.91 11.4-7.85 16.7-12.4l3-2c0.55-2.62 0.55-2.62 0.62-5.56 0.3-5.36 0.3-5.36 1.38-6.44 0.37-2.14 0.7-4.29 1-6.44 0.89-6.34 0.89-6.34 2-8.56 0.35-1.79 0.65-3.58 0.94-5.38 0.26-1.59 0.26-1.59 0.52-3.23 0.36-2.27 0.72-4.54 1.08-6.82 0.26-1.61 0.26-1.61 0.52-3.26 0.16-0.99 0.31-1.99 0.48-3.01 0.46-2.3 0.46-2.3 1.46-3.3 0.37-2.14 0.7-4.29 1-6.44 0.89-6.34 0.89-6.34 2-8.56 0.35-1.79 0.65-3.58 0.94-5.38 0.26-1.59 0.26-1.59 0.52-3.23 0.36-2.27 0.72-4.54 1.08-6.82 0.26-1.61 0.26-1.61 0.52-3.26 0.16-0.99 0.31-1.99 0.48-3.01 0.46-2.3 0.46-2.3 1.46-3.3 0.37-2.14 0.7-4.29 1-6.44 0.89-6.34 0.89-6.34 2-8.56 0.35-1.79 0.65-3.58 0.94-5.38 0.26-1.59 0.26-1.59 0.52-3.23 0.36-2.27 0.72-4.54 1.08-6.82 0.26-1.61 0.26-1.61 0.52-3.26 0.16-0.99 0.31-1.99 0.48-3.01 0.46-2.3 0.46-2.3 1.46-3.3 0.37-2.14 0.7-4.29 1-6.44 0.89-6.34 0.89-6.34 2-8.56 0.35-1.79 0.65-3.58 0.94-5.38 0.26-1.59 0.26-1.59 0.52-3.23 0.36-2.27 0.72-4.54 1.08-6.82 0.26-1.61 0.26-1.61 0.52-3.26 0.16-0.99 0.31-1.99 0.48-3.01 0.46-2.3 0.46-2.3 1.46-3.3 0.37-2.14 0.7-4.29 1-6.44 0.89-6.34 0.89-6.34 2-8.56 0.35-1.79 0.65-3.58 0.94-5.38 0.26-1.59 0.26-1.59 0.52-3.23 0.36-2.27 0.72-4.54 1.08-6.82 0.26-1.61 0.26-1.61 0.52-3.26 0.16-0.99 0.31-1.99 0.48-3.01 0.46-2.3 0.46-2.3 1.46-3.3 0.37-2.14 0.7-4.29 1-6.44 0.89-6.34 0.89-6.34 2-8.56 0.27-2.46 0.45-4.92 0.62-7.39 0.38-2.61 0.38-2.61 1.39-5.08 2.15-5.5 1.87-11.7 0.11-17.3-2.53-5.52-5.55-10.5-11.1-13.2-4.63-1.25-9.25-2.04-14-2.71-1.82-0.26-3.63-0.57-5.45-0.88-7.82-1.32-15.6-1.96-23.6-2.41-0.83-3.36-1.08-5.72-0.19-9.06 0.92-3.66 1.57-7.28 2.13-11 1.62-9.55 1.62-9.55 4.06-13.9 2.62-1.26 5.14-1.63 8-2 1.49-0.49 1.49-0.49 3-1 1.97-0.11 3.95-0.17 5.92-0.19 1.22-0.02 2.44-0.03 3.69-0.05 1.32-0.01 2.64-0.03 3.99-0.04 1.36-0.02 2.72-0.04 4.08-0.06 5.05-0.07 10.1-0.13 15.2-0.19 4.27-0.05 8.54-0.1 12.8-0.16 2.01-0.03 4.02-0.05 6.02-0.07 1.21-0.02 2.43-0.03 3.67-0.05 1.08-0.01 2.15-0.03 3.25-0.04 2.37 0.12 2.37 0.12 3.42-1.15 2.39-0.15 4.76-0.24 7.15-0.28 0.73-0.02 1.45-0.04 2.2-0.06 2.34-0.06 4.68-0.11 7.03-0.16 15.8 1.03 15.8 1.03 29.6-2.5 2.46-0.15 4.9-0.23 7.36-0.28 1.11-0.03 1.11-0.03 2.25-0.06 2.38-0.06 4.76-0.11 7.14-0.16 3.12-0.07 6.24-0.14 9.36-0.22 0.71-0.01 1.43-0.03 2.17-0.04 2.94-0.07 5.7-0.24 8.59-0.82 2.13-0.42 2.13-0.42 4.13 0.58-3.34 20.3-3.34 20.3-6 23-0.35 1.47-0.66 2.95-0.94 4.44-0.26 1.34-0.26 1.34-0.52 2.71-0.18 0.94-0.36 1.88-0.54 2.85-0.35 1.85-0.7 3.71-1.06 5.56-0.16 0.83-0.31 1.66-0.48 2.51-0.46 1.93-0.46 1.93-1.46 2.93-0.35 1.8-0.66 3.62-0.94 5.44-1.32 8.17-1.32 8.17-2.06 12.2-0.14 0.8-0.29 1.6-0.44 2.42-0.56 1.96-0.56 1.96-2.56 3.96-0.43 2.86-0.43 2.86-0.56 6.06-0.34 5.84-0.34 5.84-1.44 6.94-0.37 2.16-0.7 4.33-1 6.5-0.89 6.39-0.89 6.39-2 7.5-0.28 2.81-0.45 5.62-0.62 8.43-0.38 2.57-0.38 2.57-2.38 4.57-0.43 2.86-0.43 2.86-0.56 6.06-0.34 5.84-0.34 5.84-1.44 6.94-0.37 2.16-0.7 4.33-1 6.5-0.89 6.39-0.89 6.39-2 7.5-0.28 2.81-0.45 5.62-0.62 8.43-0.38 2.57-0.38 2.57-2.38 4.57-0.43 2.86-0.43 2.86-0.56 6.06-0.34 5.84-0.34 5.84-1.44 6.94-0.37 2.16-0.7 4.33-1 6.5-0.89 6.39-0.89 6.39-2 7.5-0.28 2.78-0.45 5.55-0.62 8.34-0.38 2.66-0.38 2.66-2.38 5.66-0.42 2.71-0.42 2.71-0.56 5.62-0.34 5.28-0.34 5.28-1.44 6.38-0.37 2.16-0.7 4.33-1 6.5-0.89 6.39-0.89 6.39-2 7.5-0.28 2.48-0.45 4.96-0.62 7.46-0.38 2.54-0.38 2.54-1.38 4.51-1.28 2.6-1.38 4.83-1.56 7.72-0.34 5.21-0.34 5.21-1.44 6.31-0.37 2.16-0.7 4.33-1 6.5-0.89 6.39-0.89 6.39-2 7.5-0.28 2.48-0.45 4.96-0.62 7.46-0.38 2.54-0.38 2.54-1.38 4.51-1.28 2.6-1.38 4.83-1.56 7.72-0.34 5.21-0.34 5.21-1.44 6.31-0.37 2.16-0.7 4.33-1 6.5-0.89 6.39-0.89 6.39-2 7.5-0.28 2.48-0.45 4.96-0.62 7.46-0.38 2.54-0.38 2.54-1.38 4.51-1.28 2.6-1.38 4.83-1.56 7.72-0.34 5.21-0.34 5.21-1.44 6.31-0.37 2.16-0.7 4.33-1 6.5-0.89 6.39-0.89 6.39-2 7.5-0.28 2.78-0.45 5.55-0.62 8.34-0.38 2.66-0.38 2.66-2.38 5.66-0.31 2.27-0.31 2.27-0.27 4.78v2.8c0 0.96 0.01 1.93 0.02 2.92-0.01 0.96-0.02 1.93-0.02 2.92v2.8c0.01 1.27 0.01 1.27 0.01 2.56 0.12 2.51 0.12 2.51 2.26 5.22 2.43 0.85 2.43 0.85 5.31 1.25 0.95 0.17 1.89 0.34 2.87 0.52 4.48 0.27 8.75-0.13 13.2-0.52 6.13-0.43 12.3-0.35 18.4-0.31 1.28 0 2.56 0.01 3.87 0.01 3.11 0.01 6.21 0.03 9.32 0.05-0.15 0.76-0.31 1.51-0.47 2.29-0.84 4.29-1.41 8.62-2.03 12.9-0.5 2.77-0.5 2.77-1.5 3.77-0.12 2.97-0.19 5.95-0.23 8.92-0.84 3.35-1.91 4.96-4.7 7.02-4.46 2.29-9.42 2.91-14.3 3.75-1.08 0.2-2.16 0.4-3.28 0.6-2.15 0.4-4.3 0.79-6.45 1.17-8.52 1.53-17 3.4-25.4 5.35-1.7 0.4-1.7 0.4-3.43 0.8-20.4 4.74-20.4 4.74-40.5 10.6-2.35 0.71-4.64 1.28-7.04 1.77-4.49 0.92-8.82 2.26-13.2 3.62-0.72 0.22-1.44 0.45-2.18 0.68-3.43 0.88-3.43 0.88-6.32 2.76-6.66 1.01-15.7 2.13-21.9-0.95-3.89-2.93-6.92-6.71-9.09-11-0.12-2.06-0.18-4.12-0.19-6.19-0.01-1.1-0.03-2.21-0.04-3.35 0.25-3.76 1.17-6.84 2.23-10.5 0.77-3.92 1.41-7.87 2.06-11.8 0.34-2.07 0.69-4.14 1.04-6.21 0.15-0.91 0.3-1.82 0.45-2.75 0.45-2.23 0.45-2.23 1.45-4.23 0.22-1.54 0.41-3.08 0.56-4.62 0.09-0.82 0.17-1.64 0.26-2.48 0.06-0.63 0.12-1.25 0.18-1.9-1.05 0.76-2.1 1.53-3.19 2.31-2.09 1.5-4.15 2.89-6.37 4.19-2.4 1.48-4.45 3.17-6.59 4.99-7.51 6.14-15.6 11.4-23.8 16.5-0.91 0.58-0.91 0.58-1.83 1.17-13.1 8.27-26.7 14.5-41.2 19.8-3.98 1.48-7.94 2.97-11.9 4.56-3.95 1.51-7.95 2.29-12.1 3.01-1.99 0.24-1.99 0.24-3 1.43-1.66 0.19-3.33 0.32-5 0.44-3.58 0.29-6.96 0.7-10.4 1.56-4.65 1.14-9.28 1.46-14.1 1.75-2.5 0.1-2.5 0.1-4.5 1.25-3.99 0.37-8 0.47-12 0.62-1.65 0.08-1.65 0.08-3.33 0.16-6.59 0.27-13.2 0.4-19.7-0.78l-1-1c-1.72-0.28-3.46-0.52-5.19-0.75-18.5-3.05-37-12.4-48.8-27.2-3.06-4.46-5.55-9.19-8-14-0.58-1.1-1.16-2.21-1.75-3.35-3.93-7.63-6.42-14.4-7.31-22.9-0.39-5.03-0.39-5.03-1.94-9.75-0.12-2.08-0.18-4.17-0.19-6.25-0.01-1.12-0.03-2.24-0.04-3.39 0.24-3.47 1.13-6.08 2.23-9.36 0.33-3.3 0.51-6.57 0.65-9.87 0.26-5.04 0.26-5.04 1.35-6.13 0.37-2.14 0.7-4.29 1-6.44 0.89-6.34 0.89-6.34 2-8.56 0.35-1.79 0.65-3.58 0.94-5.38 0.17-1.06 0.34-2.13 0.52-3.23 0.36-2.27 0.72-4.54 1.08-6.82 0.17-1.07 0.34-2.15 0.52-3.26 0.16-0.99 0.31-1.99 0.48-3.01 0.46-2.3 0.46-2.3 1.46-3.3 0.37-2.14 0.7-4.29 1-6.44 0.89-6.34 0.89-6.34 2-8.56 0.35-1.79 0.65-3.58 0.94-5.38 0.26-1.59 0.26-1.59 0.52-3.23 0.36-2.27 0.72-4.54 1.08-6.82 0.17-1.07 0.34-2.15 0.52-3.26 0.16-0.99 0.31-1.99 0.48-3.01 0.46-2.3 0.46-2.3 1.46-3.3 0.37-2.14 0.7-4.29 1-6.44 0.89-6.34 0.89-6.34 2-8.56 0.35-1.79 0.65-3.58 0.94-5.38 0.17-1.06 0.34-2.13 0.52-3.23 0.36-2.27 0.72-4.54 1.08-6.82 0.17-1.07 0.34-2.15 0.52-3.26 0.16-0.99 0.31-1.99 0.48-3.01 0.46-2.3 0.46-2.3 1.46-3.3 0.37-2.14 0.7-4.29 1-6.44 0.89-6.34 0.89-6.34 2-8.56 0.35-1.79 0.65-3.58 0.94-5.38 0.17-1.06 0.34-2.13 0.52-3.23 0.36-2.27 0.72-4.54 1.08-6.82 0.17-1.07 0.34-2.15 0.52-3.26 0.24-1.49 0.24-1.49 0.48-3.01 0.46-2.3 0.46-2.3 1.46-3.3 0.37-2.14 0.7-4.29 1-6.44 0.89-6.34 0.89-6.34 2-8.56 0.35-1.79 0.65-3.58 0.94-5.38 0.17-1.06 0.34-2.13 0.52-3.23 0.36-2.27 0.72-4.54 1.08-6.82 0.17-1.07 0.34-2.15 0.52-3.26 0.24-1.49 0.24-1.49 0.48-3.01 0.46-2.3 0.46-2.3 1.46-3.3 0.37-2.14 0.7-4.29 1-6.44 0.89-6.34 0.89-6.34 2-8.56 0.35-1.79 0.65-3.58 0.94-5.38 0.17-1.06 0.34-2.13 0.52-3.23 0.36-2.27 0.72-4.54 1.08-6.82 0.17-1.07 0.34-2.15 0.52-3.26 0.24-1.49 0.24-1.49 0.48-3.01 0.46-2.3 0.46-2.3 1.46-3.3 0.31-4.06 0.36-8.12 0.41-12.2 0.02-1.37 0.05-2.73 0.1-4.1 0.51-7.59 0.51-7.59-1.63-14.7-5.91-5.34-14.6-5.44-22.1-6.03-7.69-0.66-15.2-1.52-22.8-3-1.09-3.91-0.92-5.49 1-9 0.38-2.45 0.38-2.45 0.5-5 0.16-2.66 0.28-4.57 1.49-6.95 1.29-2.63 1.43-4.89 1.63-7.8 0.08-0.98 0.15-1.97 0.23-2.98 0.05-0.75 0.1-1.5 0.15-2.27 0.64-0.05 1.28-0.1 1.94-0.15 0.87-0.07 1.73-0.15 2.62-0.23 0.85-0.06 1.7-0.13 2.57-0.21 2.92-0.33 2.92-0.33 5.78-1.41 5.35-1.55 10.8-1.34 16.3-1.38 1.75-0.02 1.75-0.02 3.53-0.05 3.7-0.05 7.4-0.09 11.1-0.13 3.72-0.05 7.44-0.09 11.2-0.15 2.32-0.03 4.63-0.05 6.95-0.08 1.03-0.01 2.07-0.02 3.14-0.04 0.92-0.01 1.84-0.02 2.78-0.03 2.08 0.09 2.08 0.09 3.09-1.14 2-0.15 4.01-0.23 6.02-0.28 1.25-0.04 2.5-0.08 3.79-0.11 1.33-0.04 2.67-0.08 4-0.11 15 0.61 15 0.61 29.2-2.5 2.54-0.14 5.06-0.23 7.6-0.28 0.75-0.02 1.5-0.04 2.27-0.06 3.21-0.08 6.42-0.14 9.64-0.21 2.34-0.05 4.68-0.11 7.03-0.17 0.73-0.01 1.46-0.03 2.21-0.04 3.42 0.21 3.42 0.21 6.25-1.24z" fill="#000204"/>
</svg>
